<svg width="105" height="148" viewBox="0 0 105 148" fill="none" xmlns="http://www.w3.org/2000/svg">
<g clip-path="url(#clip0_1508_24)">
<path d="M104.875 28.9961L95.3376 135.678L52.4649 147.545L9.71047 135.694L0.182617 28.9961H104.875Z" fill="#E44D26"/>
<path d="M52.5288 138.473L87.1721 128.884L95.3223 37.7197H52.5288V138.473Z" fill="#F16529"/>
<path d="M33.9876 63.8927H52.5287V50.8066H19.6641L19.9776 54.3173L23.1991 90.3791H52.5287V77.2931H35.1855L33.9876 63.8927ZM36.9416 96.9224H23.7847L25.6208 117.469L52.4684 124.91L52.5287 124.894V111.279L52.4713 111.294L37.8748 107.359L36.9416 96.9224Z" fill="#EBEBEB"/>
<path d="M9.92285 0H16.5834V6.57028H22.6763V0H29.3372V19.8965H22.6767V13.234H16.5838V19.8965H9.92326L9.92285 0ZM38.0956 6.59814H32.2329V0H50.6238V6.59814H44.7573V19.8965H38.0968V6.59814H38.0956ZM53.5424 0H60.4873L64.7594 6.99109L69.0274 0H75.9751V19.8965H69.3417V10.0347L64.7594 17.109H64.6445L60.0593 10.0347V19.8965H53.5424V0ZM79.2898 0H85.9524V13.32H95.3189V19.8965H79.2894L79.2898 0Z" fill="white"/>
<path d="M52.4838 90.3791H68.6229L67.1012 107.351L52.4834 111.29V124.904L79.3524 117.469L79.5494 115.258L82.6297 80.807L82.9494 77.2931H52.4838V90.3791ZM52.4838 63.8607V63.8927H84.1419L84.4046 60.9515L85.0021 54.3173L85.3152 50.8066H52.4838V63.8607Z" fill="white"/>
</g>
<defs>
<clipPath id="clip0_1508_24">
<rect width="105" height="148" fill="white"/>
</clipPath>
</defs>
</svg>
