<svg width="205" height="246" viewBox="0 0 205 246" fill="none" xmlns="http://www.w3.org/2000/svg">
<g clip-path="url(#clip0_1508_30)">
<path d="M72.047 223.932L18.3086 190.304L48.6792 39.8975L192.077 82.3875L135.599 225.034L72.047 223.932Z" fill="#264DE4"/>
<path d="M127.18 212.39L175.443 90.492L116.828 73.124L75.8262 211.5L127.18 212.39Z" fill="#2965F1"/>
<path d="M58.9423 115.093L55.2256 133.543L95.3986 145.446L100.724 127.474L58.9423 115.093ZM66.4878 77.7588L62.7942 96.2148L106.177 109.07L111.503 91.0971L66.4878 77.7588ZM86.8934 174.15L86.8085 174.148L68.417 162.819L71.386 148.107L53.365 142.767L47.5181 171.732L81.2634 192.847L81.3527 192.849L86.8934 174.15Z" fill="#EBEBEB"/>
<path d="M94.2275 10.0737L115.97 16.5161L113.272 25.6191L100.623 21.871L97.9255 30.974L110.576 34.7225L107.879 43.825L86.1358 37.3823L94.2275 10.0737ZM120.319 17.8048L142.061 24.2473L139.716 32.1629L127.066 28.4146L126.597 29.9976L139.247 33.7459L133.852 51.952L112.11 45.5096L114.573 37.1973L127.223 40.9456L127.692 39.3626L115.041 35.6139L120.319 17.8048ZM146.41 25.5359L168.153 31.9785L165.808 39.8941L153.158 36.1458L152.688 37.7288L165.339 41.4771L159.944 59.6832L138.201 53.2407L140.664 44.9283L153.314 48.6766L153.784 47.0936L141.134 43.3454L146.41 25.5359Z" fill="white"/>
<path d="M142.391 139.82L156.41 104.404L111.441 91.0788L106.115 109.051L131.411 116.547L124.324 134.467L100.662 127.455L95.3364 145.428L117.442 151.978L108.451 174.67L86.8261 174.147L81.2857 192.845L121.114 193.539L122.284 190.582L140.523 144.516L142.391 139.82Z" fill="white"/>
</g>
<defs>
<clipPath id="clip0_1508_30">
<rect width="150" height="212" fill="white" transform="translate(60.229) rotate(16.505)"/>
</clipPath>
</defs>
</svg>
