<svg width="244" height="244" viewBox="0 0 244 244" fill="none" xmlns="http://www.w3.org/2000/svg">
<g clip-path="url(#clip0_1498_40)">
<path d="M143.803 12.9369L44.0212 42.2601C19.709 49.4048 5.79196 74.9058 12.9367 99.218L42.2599 199C49.4047 223.312 74.9056 237.229 99.2179 230.084L198.999 200.761C223.312 193.616 237.229 168.115 230.084 143.803L200.761 44.0214C193.616 19.7091 168.115 5.79211 143.803 12.9369Z" fill="#F0DB4F"/>
<path d="M95.5122 197.643L107.329 184.72C111.547 188.822 115.292 192.241 121.343 190.462C127.142 188.758 130.133 185.415 127.539 176.59L109.903 116.576L127.554 111.389L145.264 171.652C150.636 189.934 142.365 201.404 126.73 205.999C112.61 210.148 102.265 205.244 95.5111 197.642M157.37 177.409L169.297 164.865C174.896 169.932 181.147 173.025 189.846 170.469C197.16 168.32 200.748 163.292 199.266 158.249C197.488 152.198 192.067 151.462 182.961 150.304L177.993 149.708C163.665 148.03 153.217 143.704 148.993 129.331C145.103 116.093 152.225 103.042 167.985 98.4101C179.206 95.1125 188.424 96.6503 197.224 105.158L186.075 118.022C181.456 113.491 177.549 112.31 172.506 113.793C167.336 115.312 165.022 119.553 166.281 123.839C167.837 129.134 171.745 130.315 180.273 131.371L185.241 131.965C202.134 133.987 212.508 138.059 216.843 152.81C221.512 168.697 211.587 181.063 194.818 185.991C178.429 190.808 165.541 186.103 157.37 177.409Z" fill="#323330"/>
</g>
<defs>
<clipPath id="clip0_1498_40">
<rect width="195.766" height="195.766" fill="white" transform="translate(0 55.1968) rotate(-16.3767)"/>
</clipPath>
</defs>
</svg>
